<svg width="48" height="48" viewBox="0 0 48 48" fill="none" xmlns="http://www.w3.org/2000/svg">
<path d="M20.6674 36.0002C21.9558 36.0002 23.0002 34.9558 23.0002 33.6674C23.0002 32.379 21.9558 31.3346 20.6674 31.3346C19.379 31.3346 18.3346 32.379 18.3346 33.6674C18.3346 34.9558 19.379 36.0002 20.6674 36.0002Z" stroke="black" stroke-width="2" stroke-linecap="round" stroke-linejoin="round"/>
<path d="M30.8306 36.0002C32.1189 36.0002 33.1634 34.9558 33.1634 33.6674C33.1634 32.379 32.1189 31.3346 30.8306 31.3346C29.5422 31.3346 28.4978 32.379 28.4978 33.6674C28.4978 34.9558 29.5422 36.0002 30.8306 36.0002Z" stroke="black" stroke-width="2" stroke-linecap="round" stroke-linejoin="round"/>
<path d="M15.2597 15.1611L18.0162 23.8889C18.44 25.2302 18.6512 25.9008 19.0585 26.3973C19.4151 26.8361 19.88 27.1749 20.4053 27.3847C21.0018 27.6219 21.704 27.6219 23.1111 27.6219H28.3979C29.805 27.6219 30.5072 27.6219 31.1024 27.3847C31.629 27.1749 32.0926 26.8361 32.4505 26.3973C32.8565 25.9008 33.0677 25.2302 33.4928 23.8889L34.0537 22.1115L34.3829 21.061L34.8368 19.621C34.9988 19.1074 35.0375 18.5629 34.9498 18.0315C34.8622 17.5002 34.6506 16.997 34.3322 16.5626C34.0138 16.1283 33.5975 15.7751 33.1172 15.5316C32.6368 15.2881 32.1059 15.1612 31.5673 15.1611H15.2597ZM15.2597 15.1611L15.2446 15.1104C15.1867 14.9164 15.1226 14.7243 15.0526 14.5344C14.7749 13.8316 14.3041 13.2217 13.6945 12.7752C13.0849 12.3286 12.3614 12.0637 11.6075 12.011C11.4663 12 11.3113 12 11 12" stroke="black" stroke-width="2" stroke-linecap="round" stroke-linejoin="round"/>
</svg>
