<svg width="48" height="48" viewBox="0 0 48 48" fill="none" xmlns="http://www.w3.org/2000/svg">
<path d="M36 36L30.2094 30.2094M30.2094 30.2094C31.1999 29.2189 31.9856 28.043 32.5217 26.7488C33.0577 25.4547 33.3336 24.0676 33.3336 22.6668C33.3336 21.266 33.0577 19.879 32.5217 18.5848C31.9856 17.2906 31.1999 16.1147 30.2094 15.1242C29.2189 14.1337 28.043 13.348 26.7488 12.812C25.4547 12.2759 24.0676 12 22.6668 12C21.266 12 19.879 12.2759 18.5848 12.812C17.2906 13.348 16.1147 14.1337 15.1242 15.1242C13.1238 17.1247 12 19.8378 12 22.6668C12 25.4958 13.1238 28.209 15.1242 30.2094C17.1247 32.2098 19.8378 33.3336 22.6668 33.3336C25.4958 33.3336 28.209 32.2098 30.2094 30.2094Z" stroke="black" stroke-width="2" stroke-linecap="round" stroke-linejoin="round"/>
</svg>
