<svg width="48" height="48" viewBox="0 0 48 48" fill="none" xmlns="http://www.w3.org/2000/svg">
<path d="M14 36V34.5C14 31.7152 15.1062 29.0445 17.0754 27.0754C19.0445 25.1062 21.7152 24 24.5 24M24.5 24C27.2848 24 29.9555 25.1062 31.9246 27.0754C33.8938 29.0445 35 31.7152 35 34.5V36M24.5 24C26.0913 24 27.6174 23.3679 28.7426 22.2426C29.8679 21.1174 30.5 19.5913 30.5 18C30.5 16.4087 29.8679 14.8826 28.7426 13.7574C27.6174 12.6321 26.0913 12 24.5 12C22.9087 12 21.3826 12.6321 20.2574 13.7574C19.1321 14.8826 18.5 16.4087 18.5 18C18.5 19.5913 19.1321 21.1174 20.2574 22.2426C21.3826 23.3679 22.9087 24 24.5 24Z" stroke="black" stroke-width="2" stroke-linecap="round" stroke-linejoin="round"/>
</svg>
